<?xml version="1.0" encoding="utf-8"?>
<!-- Generator: Adobe Illustrator 16.0.0, SVG Export Plug-In . SVG Version: 6.00 Build 0)  -->
<!DOCTYPE svg PUBLIC "-//W3C//DTD SVG 1.1//EN" "http://www.w3.org/Graphics/SVG/1.1/DTD/svg11.dtd">
<svg version="1.1" id="图层_1" xmlns="http://www.w3.org/2000/svg" xmlns:xlink="http://www.w3.org/1999/xlink" x="0px" y="0px"
	 width="960px" height="560px" viewBox="0 0 960 560" enable-background="new 0 0 960 560" xml:space="preserve">
<g>
	<path fill-rule="evenodd" clip-rule="evenodd" fill="#231815" d="M381.748,140.165c0.556,10.383,17.742,4.132,20.415,12.397
		c-5.89,8.145-14.503,11.115-22.604,18.959c-2.877,2.786-9.562,9.471-8.75,13.125c1.853,8.359,18.194-1.596,22.605-3.646
		c8.443-3.922,14.967-8.711,22.603-8.75c3.427,11.83-11.401,11.34-16.768,16.772c-1.888,8.519-0.264,19.656,1.456,26.98
		c1.922,3.183,7.424,2.788,10.21,5.104c-0.803,6.977-1.514,14.042-5.835,17.501c-18.73-4.501-14.699-27.68-16.771-48.127
		c-16.086-3.232-15.355,19.868-21.146,30.626c-3.983,7.401-7.776,14.244-17.501,15.313c-13.599-13.146,13.157-16.536,11.668-31.355
		c-26.109,2.81-25.589,35.229-43.024,53.231c-6.235,6.439-23.92,18.844-29.897,5.833c0.392-12.422,3.278-23.713,12.396-32.083
		c8.538-7.837,25.512-11.65,25.523-22.605c0.003-3.697-4.653-8.049-4.376-14.584c0.193-4.549,3.476-13.816,8.751-13.855
		c8.785-0.063,7.567,18.124,11.667,22.605c4.318,0.671,6.046-1.246,9.479-1.458c3.622-19.226,16.125-29.57,24.065-44.481
		c-17.764-11.259-32.144,15.651-48.858,10.209c-4.149-6.475,5.696-17.362,13.856-25.523c6.574-6.575,15.338-14.993,19.688-17.5
		C372.959,117.728,392.117,123.298,381.748,140.165z"/>
	<path fill-rule="evenodd" clip-rule="evenodd" fill="#231815" d="M899.478,179.542c-10.463-0.472-18.487,3.835-20.418,13.855
		c12.319,5.131,28.557-2.984,42.294-2.188c7.515,0.436,13.662,5.025,19.693,3.646c2.526,17.246-14.557,26.148-29.168,24.063
		c-1.355-1.565-0.495-5.341-0.731-8.021c-12.036-7.411-28.972-1.291-42.294,0.731c-20.792,3.152-43.548,1.312-61.255,8.02
		c-4.981,8.698-5.002,26.016-18.956,23.334c-4.764-5.646-0.717-13.784,0-21.876c1.112-12.524-1.802-27.654,6.562-33.543
		c8.138-1.093,10.029,4.066,17.504,3.646c4.879-4.485,1.273-12.513,0.725-19.688c-0.745-9.757-1.003-23.731,1.458-32.084
		c1.077-3.647,4.059-9.86,7.29-10.209c6.222-0.671,8.594,8.766,8.756,11.667c0.902,16.333-8.335,35.416-6.566,53.232
		c6.879,8.513,33.396,4.76,42.294,3.645c11.122-12.833,14.455-30.658,21.876-45.939c3.625-0.466,4.106,2.216,7.292,2.187
		c3.063-2.773,6.045-5.621,5.834-11.668c-9.92,0.849-20.94,1.742-22.606,10.209c-0.61,3.133,1.944,6.667,1.464,10.209
		c-0.638,4.625-7.733,13.106-10.938,16.771c-4.189,4.786-9.488,11.353-17.506,10.209c-4.581-7.212-2.799-17.294,0.732-24.793
		c2.237-4.761,8.878-7.569,6.56-12.396c-7.854-1.349-9.745,8.82-11.662,16.042c-2.088,7.84-1.973,17.93-9.481,19.69
		c-6.078-7.202-6.362-23.041-0.73-30.628c-0.278-4.473-4.684-3.757-5.104-8.021c-0.461-4.662,4.418-6.786,6.56-10.209
		c2.922-4.661,1.688-8.667,6.566-8.75c4.311-0.073,5.68,6.695,10.206,7.292c6.892,0.906,7.515-5.545,13.127-5.833
		c2.405,0.998,2.29,4.517,5.103,5.103c15.335-1.677,18.895-15.138,37.191-13.854C936.736,139.699,905.143,163.3,899.478,179.542z"/>
	<path fill-rule="evenodd" clip-rule="evenodd" fill="#231815" d="M292.785,137.248c7.598,4.586,9.524,18.631,9.478,28.441
		C287.322,169.001,274.559,141.934,292.785,137.248z"/>
	<path fill-rule="evenodd" clip-rule="evenodd" fill="#231815" d="M643.532,143.811c5.958,26.489-14.55,48.388-13.858,74.378
		c13.744,7.706,30.536-5.617,44.483-1.456c-0.563,7.807-1.796,17.75-8.023,21.146c-10.031,5.47-25.691-1.24-37.185,2.916
		c-7.706,14.477-10.653,36.809-22.607,50.317c-3.794,4.282-14.38,11.833-18.229,17.498c-4.487,6.593-4.751,14.295-16.048,8.748
		c-2.006-13.661,6.595-25.013,11.67-36.458c5.292-11.933,9.785-24.5,13.126-37.917c-11.676,1.329-27.424,13.354-41.562,5.834
		c-1.992-18.104,8.742-23.687,22.602-27.71c7.616-2.209,17.266,0.57,24.063-2.917c5.903-3.024,4.426-14.886,6.566-25.521
		c2.771-13.785,13.873-47.111,27.711-49.585C638.368,142.701,640.979,142.83,643.532,143.811z"/>
	<path fill-rule="evenodd" clip-rule="evenodd" fill="#231815" d="M128.713,288.192c3.957-4.479,8.022-9.042,8.75-16.041
		c1.843-17.727,1.325-50.97,0-70.732c-1.023-15.265-8.327-28.548-24.792-28.44c-9.119,0.06-16.866,3.319-29.17,5.105
		c-9.109,1.321-23.155,1.148-29.167,4.374c-7.783,4.177-9.662,25.701-10.209,39.377c-0.651,16.288-2.34,29.574-3.646,44.481
		c-1.839,21.001,3.199,41.854-3.646,58.336c-18.573-5.289-12.918-39.565-12.396-60.525c0.646-25.922-1.988-51.717,2.916-83.128
		c2.042-13.073,6.533-30.47,17.501-30.626c4.332-0.062,7.944,4.476,11.667,5.104c3.663,0.617,9.307-1.028,13.855-0.73
		c14.445,0.947,26.353,6.314,37.918,2.917c9.398-2.76,16.71-13.603,29.168-7.292c16.637,8.427,19.609,53.245,19.688,77.295
		c0.105,31.821-7.746,54.955-20.418,75.106c-1.376,2.188-8.405,17.124-11.667,17.504c-8.982,1.037-13.882-26.24-8.75-31.357
		C119.159,286.091,122.079,285.949,128.713,288.192z"/>
	<path fill-rule="evenodd" clip-rule="evenodd" fill="#231815" d="M281.846,166.417c17.633,9.343,4.356,38.385-13.854,35.003
		c-0.479-6.951,5.848-10.918,8.02-16.773C278.202,178.745,277.697,171.758,281.846,166.417z"/>
	<path fill-rule="evenodd" clip-rule="evenodd" fill="#231815" d="M433.518,187.563c4.877,6.225-0.588,13.561-2.917,18.96
		c8.376,11.558,25.014,14.851,43.027,16.77c15.626,10.475-7.885,18.221-20.419,13.855c-11.533-4.017-25.907-12.905-31.355-16.771
		c-6.286-2.399-14.286-4.286-15.312-10.209C404.664,199.362,420.928,183.046,433.518,187.563z"/>
	<path fill-rule="evenodd" clip-rule="evenodd" fill="#231815" d="M97.357,202.147c3.767,20.927-23.126,14.885-29.167,6.563
		C66.53,194.347,92.299,192.617,97.357,202.147z"/>
	<path fill-rule="evenodd" clip-rule="evenodd" fill="#231815" d="M266.532,205.792c7.513,1.188,4.367,9.023,4.375,15.314
		c0.019,11.584,4.731,25.3,2.917,37.189c-0.693,4.539-6.024,13.636-7.292,18.229c-2.449,8.882-2.87,23.469-4.374,34.274
		c-1.324,9.487-2.842,27.843-10.94,26.978c-7.564-0.802-10.292-23.054-9.478-30.624c0.711-6.633,3.985-14.989,6.563-23.332
		c2.09-6.773,5.114-14.136,7.292-21.879c4.679-16.631,4.286-35.162,7.292-51.043C263.237,209.039,263.667,206.971,266.532,205.792z"
		/>
	<path fill-rule="evenodd" clip-rule="evenodd" fill="#231815" d="M892.186,227.67c4.372,5.281,7.265,7.867,6.566,13.854
		c-0.778,6.674-13.722,13.318-13.858,19.688c-0.278,13.346,26.335,0.229,29.898,13.125c4.128,14.941-16.989,10.032-26.977,13.854
		c-1.817,7.792,0.025,23.874-7.292,34.276c-1.919,2.718-5.578,5.082-8.023,7.292c-4.981,4.492-21.361,22.142-29.899,15.308
		c-4.236-3.387-7.732-16.405-8.75-21.143c15.425,4.676,30.862-3.267,36.46-17.505c2.541-6.443,5.028-16.453,0.731-20.415
		c-9.563-4.456-26.327,6.676-37.922,6.564c-4.257-0.042-12.457-2.81-13.12-5.836c-0.976-4.415,8.444-11.561,12.395-13.125
		c16.346-6.476,46.529,3.132,35.728-24.793c-9.63,4.705-21.396,7.284-34.271,8.751c-3.191-3.126-2.411-10.229-3.645-15.314
		c2.147-2.229,4.072-4.679,6.559-6.563C854.9,231.062,874.411,232.243,892.186,227.67z"/>
	<path fill-rule="evenodd" clip-rule="evenodd" fill="#231815" d="M113.4,254.651c-2.001,11.634-12.525,18.555-23.334,18.958
		c-4.21-3.57-4.31-11.246-8.75-14.584c-2.677,2.083,0.584,9.653-1.458,13.854c-19.391,14.61-34.474-27.712-16.042-36.46
		c9.833,3.208,17.913-2.12,25.522-0.729c5.807,1.063,8.551,7.413,13.125,10.937C106.848,250.008,111.731,249.843,113.4,254.651z"/>
	<path fill-rule="evenodd" clip-rule="evenodd" fill="#231815" d="M345.288,244.441c6.319,5.223-1.573,14.908,2.186,21.146
		c11.154-1,14.258-10.048,25.523-10.937c3.727,3.565,1.167,13.415,2.917,18.958c9.074-3.012,9.863-17.698,16.771-24.063
		c16.627-15.326,30.486,10.343,28.44,28.438c-1.16,10.233-7.699,22.091-12.398,31.357c-4.988,9.826-9.399,21.289-18.23,24.789
		c-3.848-5.468,1.79-11.574,4.375-17.497c4.354-9.976,10.846-21.964,10.937-36.46c0.048-6.879-2.097-15.527-8.02-15.313
		c-3.021,0.107-17.159,15.613-19.686,18.96c-5.934,7.848-7.042,18.434-19.69,16.77c-3.476-5.668,4.664-22.384-7.292-23.333
		c-18.458-1.47-5.249,42.521-19.688,42.291c-8.065-0.129-6.87-21.702-5.834-30.624c0.246-2.113,2.618-7.587,4.375-14.585
		C332.996,262.314,331.237,244.732,345.288,244.441z"/>
	<path fill-rule="evenodd" clip-rule="evenodd" fill="#231815" d="M685.827,282.361c-0.359,9.116,1.205,20.167-2.189,26.249
		c-11.825,1.281-32.115-13.463-35.734-24.79c-1.6-5.013-1.49-12.166,2.188-16.773C664.541,263.903,677.145,274.904,685.827,282.361z
		"/>
	<path fill-rule="evenodd" clip-rule="evenodd" fill="#231815" d="M360.6,124.853c-4.351,2.506-13.114,10.924-19.688,17.5
		c-8.16,8.161-18.005,19.048-13.856,25.523c16.714,5.442,31.094-21.468,48.858-10.209c-7.94,14.911-20.443,25.255-24.065,44.481
		c-3.433,0.212-5.161,2.129-9.479,1.458c-4.1-4.481-2.882-22.668-11.667-22.605c-5.275,0.039-8.558,9.306-8.751,13.855
		c-0.276,6.535,4.379,10.887,4.376,14.584c-0.011,10.956-16.985,14.768-25.523,22.605c-9.118,8.371-12.005,19.661-12.396,32.083
		c5.977,13.011,23.663,0.607,29.897-5.833c17.435-18.002,16.915-50.422,43.024-53.231c1.489,14.819-25.268,18.209-11.668,31.355
		c9.725-1.069,13.518-7.913,17.501-15.313c5.792-10.758,5.06-33.858,21.146-30.626c2.072,20.447-1.958,43.626,16.771,48.127
		c4.321-3.459,5.032-10.524,5.835-17.501c-2.786-2.316-8.289-1.922-10.21-5.104c-1.72-7.324-3.344-18.461-1.456-26.98
		c5.367-5.432,20.195-4.942,16.768-16.772c-7.636,0.039-14.16,4.828-22.603,8.75c-4.412,2.05-20.753,12.005-22.605,3.646
		c-0.813-3.655,5.873-10.34,8.75-13.125c8.102-7.844,16.715-10.815,22.604-18.959c-2.673-8.265-19.859-2.014-20.415-12.397
		C392.117,123.298,372.959,117.728,360.6,124.853z"/>
	<path fill-rule="evenodd" clip-rule="evenodd" fill="#231815" d="M911.147,123.394c-18.297-1.284-21.856,12.176-37.191,13.854
		c-2.813-0.586-2.697-4.105-5.103-5.103c-5.612,0.288-6.235,6.74-13.127,5.833c-4.526-0.597-5.896-7.365-10.206-7.292
		c-4.878,0.083-3.645,4.09-6.566,8.75c-2.142,3.423-7.021,5.547-6.56,10.209c0.42,4.263,4.825,3.548,5.104,8.021
		c-5.632,7.587-5.348,23.426,0.73,30.628c7.509-1.76,7.394-11.85,9.481-19.69c1.917-7.222,3.808-17.392,11.662-16.042
		c2.318,4.827-4.322,7.636-6.56,12.396c-3.531,7.499-5.313,17.581-0.732,24.793c8.018,1.144,13.316-5.423,17.506-10.209
		c3.204-3.666,10.3-12.146,10.938-16.771c0.48-3.542-2.074-7.076-1.464-10.209c1.666-8.467,12.687-9.36,22.606-10.209
		c0.211,6.047-2.771,8.895-5.834,11.668c-3.186,0.029-3.667-2.653-7.292-2.187c-7.421,15.282-10.754,33.106-21.876,45.939
		c-8.897,1.115-35.415,4.868-42.294-3.645c-1.769-17.817,7.469-36.9,6.566-53.232c-0.162-2.901-2.534-12.339-8.756-11.667
		c-3.231,0.349-6.213,6.562-7.29,10.209c-2.461,8.353-2.203,22.328-1.458,32.084c0.549,7.175,4.154,15.204-0.725,19.688
		c-7.475,0.42-9.366-4.739-17.504-3.646c-8.363,5.889-5.449,21.019-6.562,33.543c-0.717,8.092-4.764,16.23,0,21.876
		c13.954,2.682,13.975-14.636,18.956-23.334c17.707-6.708,40.463-4.868,61.255-8.02c13.322-2.021,30.258-8.142,42.294-0.731
		c0.236,2.68-0.624,6.456,0.731,8.021c14.611,2.084,31.694-6.817,29.168-24.063c-6.031,1.379-12.179-3.21-19.693-3.646
		c-13.737-0.796-29.975,7.319-42.294,2.188c1.931-10.02,9.955-14.327,20.418-13.855C905.143,163.3,936.736,139.699,911.147,123.394z
		"/>
	<path fill-rule="evenodd" clip-rule="evenodd" fill="#231815" d="M302.263,165.688c0.046-9.81-1.88-23.854-9.478-28.441
		C274.559,141.934,287.322,169.001,302.263,165.688z"/>
	<path fill-rule="evenodd" clip-rule="evenodd" fill="#231815" d="M636.241,143.083c-13.838,2.475-24.939,35.8-27.711,49.585
		c-2.141,10.635-0.663,22.497-6.566,25.521c-6.798,3.487-16.447,0.708-24.063,2.917c-13.859,4.023-24.594,9.605-22.602,27.71
		c14.138,7.52,29.886-4.505,41.562-5.834c-3.341,13.418-7.834,25.985-13.126,37.917c-5.075,11.446-13.676,22.797-11.67,36.458
		c11.297,5.547,11.561-2.155,16.048-8.748c3.85-5.665,14.436-13.216,18.229-17.498c11.954-13.509,14.901-35.841,22.607-50.317
		c11.493-4.155,27.153,2.555,37.185-2.916c6.228-3.396,7.461-13.34,8.023-21.146c-13.947-4.161-30.739,9.162-44.483,1.456
		c-0.691-25.99,19.816-47.889,13.858-74.378C640.979,142.83,638.368,142.701,636.241,143.083z"/>
	<path fill-rule="evenodd" clip-rule="evenodd" fill="#231815" d="M116.318,288.923c-5.132,5.117-0.233,32.395,8.75,31.357
		c3.262-0.38,10.291-15.315,11.667-17.504c12.672-20.151,20.523-43.285,20.418-75.106c-0.08-24.051-3.051-68.869-19.688-77.295
		c-12.458-6.311-19.771,4.532-29.168,7.292c-11.565,3.397-23.473-1.97-37.918-2.917c-4.548-0.298-10.192,1.347-13.855,0.73
		c-3.724-0.629-7.336-5.166-11.667-5.104c-10.969,0.156-15.46,17.553-17.501,30.626c-4.903,31.411-2.27,57.206-2.916,83.128
		c-0.522,20.959-6.177,55.236,12.396,60.525c6.845-16.481,1.807-37.335,3.646-58.336c1.306-14.908,2.995-28.194,3.646-44.481
		c0.547-13.676,2.426-35.2,10.209-39.377c6.012-3.226,20.058-3.053,29.167-4.374c12.304-1.786,20.051-5.045,29.17-5.105
		c16.465-0.108,23.769,13.175,24.792,28.44c1.325,19.762,1.843,53.005,0,70.732c-0.728,6.999-4.794,11.561-8.75,16.041
		C122.079,285.949,119.159,286.091,116.318,288.923z"/>
	<path fill-rule="evenodd" clip-rule="evenodd" fill="#231815" d="M276.012,184.646c-2.172,5.855-8.5,9.822-8.02,16.773
		c18.21,3.382,31.487-25.66,13.854-35.003C277.697,171.758,278.202,178.745,276.012,184.646z"/>
	<path fill-rule="evenodd" clip-rule="evenodd" fill="#231815" d="M406.541,210.169c1.026,5.923,9.026,7.81,15.312,10.209
		c5.449,3.867,19.822,12.755,31.355,16.771c12.535,4.366,36.045-3.381,20.419-13.855c-18.013-1.919-34.65-5.212-43.027-16.77
		c2.329-5.399,7.794-12.736,2.917-18.96C420.928,183.046,404.664,199.362,406.541,210.169z"/>
	<path fill-rule="evenodd" clip-rule="evenodd" fill="#231815" d="M68.19,208.71c6.042,8.323,32.934,14.364,29.167-6.563
		C92.299,192.617,66.53,194.347,68.19,208.71z"/>
	<path fill-rule="evenodd" clip-rule="evenodd" fill="#231815" d="M262.887,210.897c-3.006,15.882-2.613,34.412-7.292,51.043
		c-2.178,7.744-5.202,15.106-7.292,21.879c-2.578,8.343-5.851,16.699-6.563,23.332c-0.814,7.57,1.914,29.822,9.478,30.624
		c8.098,0.865,9.616-17.49,10.94-26.978c1.504-10.805,1.925-25.392,4.374-34.274c1.268-4.593,6.599-13.69,7.292-18.229
		c1.814-11.89-2.898-25.605-2.917-37.189c-0.008-6.291,3.138-14.126-4.375-15.314C263.667,206.971,263.237,209.039,262.887,210.897z
		"/>
	<path fill-rule="evenodd" clip-rule="evenodd" fill="#231815" d="M836.765,235.69c-2.486,1.885-4.411,4.335-6.559,6.563
		c1.233,5.085,0.453,12.188,3.645,15.314c12.876-1.467,24.642-4.046,34.271-8.751c10.802,27.925-19.382,18.317-35.728,24.793
		c-3.95,1.564-13.37,8.71-12.395,13.125c0.663,3.026,8.863,5.794,13.12,5.836c11.595,0.111,28.359-11.021,37.922-6.564
		c4.297,3.962,1.81,13.972-0.731,20.415c-5.598,14.238-21.035,22.181-36.46,17.505c1.018,4.737,4.514,17.756,8.75,21.143
		c8.538,6.834,24.918-10.815,29.899-15.308c2.445-2.21,6.104-4.574,8.023-7.292c7.317-10.402,5.475-26.484,7.292-34.276
		c9.987-3.822,31.104,1.087,26.977-13.854c-3.563-12.896-30.177,0.221-29.898-13.125c0.137-6.37,13.08-13.014,13.858-19.688
		c0.698-5.988-2.194-8.573-6.566-13.854C874.411,232.243,854.9,231.062,836.765,235.69z"/>
	<path fill-rule="evenodd" clip-rule="evenodd" fill="#231815" d="M102.462,246.627c-4.574-3.524-7.318-9.874-13.125-10.937
		c-7.61-1.39-15.69,3.937-25.522,0.729c-18.431,8.748-3.348,51.07,16.042,36.46c2.043-4.201-1.218-11.771,1.458-13.854
		c4.44,3.338,4.54,11.014,8.75,14.584c10.809-0.404,21.333-7.324,23.334-18.958C111.731,249.843,106.848,250.008,102.462,246.627z"
		/>
	<path fill-rule="evenodd" clip-rule="evenodd" fill="#231815" d="M329.973,274.338c-1.757,6.998-4.129,12.472-4.375,14.585
		c-1.035,8.922-2.23,30.495,5.834,30.624c14.439,0.23,1.23-43.761,19.688-42.291c11.956,0.949,3.816,17.666,7.292,23.333
		c12.648,1.664,13.756-8.922,19.69-16.77c2.527-3.347,16.664-18.853,19.686-18.96c5.923-0.213,8.068,8.435,8.02,15.313
		c-0.091,14.497-6.583,26.485-10.937,36.46c-2.585,5.923-8.223,12.029-4.375,17.497c8.831-3.5,13.243-14.963,18.23-24.789
		c4.699-9.267,11.238-21.124,12.398-31.357c2.046-18.096-11.813-43.764-28.44-28.438c-6.908,6.366-7.698,21.051-16.771,24.063
		c-1.75-5.544,0.81-15.394-2.917-18.958c-11.265,0.889-14.369,9.937-25.523,10.937c-3.759-6.238,4.134-15.923-2.186-21.146
		C331.237,244.732,332.996,262.314,329.973,274.338z"/>
	<path fill-rule="evenodd" clip-rule="evenodd" fill="#231815" d="M650.092,267.047c-3.679,4.607-3.788,11.76-2.188,16.773
		c3.619,11.327,23.909,26.071,35.734,24.79c3.395-6.082,1.83-17.133,2.189-26.249C677.145,274.904,664.541,263.903,650.092,267.047z
		"/>
</g>
<g>
	<path fill="#231815" d="M73.175,374.521l0.674,14.584h-1.708c-0.331-2.565-0.779-4.397-1.348-5.502
		c-0.929-1.77-2.165-3.077-3.708-3.917c-1.543-0.841-3.573-1.265-6.091-1.265h-8.583v47.516c0,3.821,0.405,6.204,1.212,7.149
		c1.139,1.287,2.892,1.928,5.259,1.928h2.112v1.697H35.152v-1.697h2.158c2.575,0,4.403-0.796,5.482-2.382
		c0.659-0.982,0.989-3.213,0.989-6.695v-47.516h-7.327c-2.846,0-4.869,0.214-6.067,0.641c-1.559,0.582-2.892,1.7-4,3.347
		c-1.108,1.655-1.769,3.884-1.978,6.696h-1.708l0.718-14.584H73.175z"/>
	<path fill="#231815" d="M108.143,373.102c7.91,0,14.763,3.065,20.562,9.195c5.798,6.13,8.697,13.78,8.697,22.954
		c0,9.445-2.923,17.29-8.765,23.524c-5.843,6.238-12.915,9.359-21.214,9.359c-8.39,0-15.438-3.043-21.145-9.129
		c-5.708-6.085-8.563-13.956-8.563-23.617c0-9.877,3.296-17.931,9.888-24.172C93.326,375.808,100.171,373.102,108.143,373.102z
		 M107.289,376.448c-5.454,0-9.828,2.064-13.125,6.19c-4.104,5.138-6.156,12.659-6.156,22.567c0,10.151,2.127,17.962,6.382,23.434
		c3.267,4.158,7.58,6.235,12.943,6.235c5.723,0,10.45-2.276,14.181-6.831s5.595-11.74,5.595-21.557
		c0-10.641-2.053-18.571-6.158-23.801C117.656,378.53,113.102,376.448,107.289,376.448z"/>
	<path fill="#231815" d="M139.737,374.521h16.54l37.258,46.645v-35.862c0-3.822-0.42-6.207-1.259-7.157
		c-1.107-1.284-2.861-1.925-5.256-1.925h-2.113v-1.7h21.213v1.7h-2.157c-2.577,0-4.405,0.795-5.484,2.383
		c-0.659,0.98-0.988,3.209-0.988,6.699v52.419h-1.619l-40.181-50.081v38.296c0,3.821,0.406,6.204,1.215,7.149
		c1.138,1.287,2.89,1.928,5.257,1.928h2.158v1.697h-21.215v-1.697h2.112c2.608,0,4.451-0.796,5.529-2.382
		c0.659-0.982,0.989-3.213,0.989-6.695v-43.25c-1.769-2.107-3.109-3.499-4.022-4.174c-0.916-0.671-2.255-1.298-4.023-1.882
		c-0.87-0.273-2.188-0.41-3.955-0.41V374.521z"/>
	<path fill="#231815" d="M263.919,373.102l1.573,19.628h-1.573c-1.588-4.893-3.642-8.576-6.157-11.052
		c-3.627-3.579-8.286-5.367-13.978-5.367c-7.762,0-13.664,3.137-17.71,9.402c-3.385,5.289-5.078,11.589-5.078,18.897
		c0,5.93,1.124,11.345,3.371,16.233c2.248,4.89,5.19,8.477,8.832,10.755c3.641,2.276,7.378,3.415,11.214,3.415
		c2.246,0,4.418-0.288,6.518-0.871c2.096-0.582,4.119-1.437,6.066-2.568v-17.979c0-3.116-0.232-5.156-0.696-6.118
		c-0.465-0.963-1.185-1.702-2.158-2.203c-0.974-0.505-2.688-0.759-5.146-0.759v-1.741h23.595v1.741h-1.123
		c-2.336,0-3.94,0.796-4.808,2.386c-0.599,1.131-0.898,3.364-0.898,6.694v19.037c-3.447,1.895-6.848,3.286-10.203,4.171
		c-3.356,0.885-7.087,1.332-11.192,1.332c-11.774,0-20.718-3.855-26.831-11.558c-4.584-5.777-6.876-12.446-6.876-19.996
		c0-5.475,1.288-10.718,3.864-15.731c3.056-5.96,7.251-10.549,12.585-13.761c4.464-2.655,9.737-3.987,15.82-3.987
		c2.217,0,4.232,0.183,6.046,0.551c1.811,0.367,4.381,1.177,7.707,2.431c1.677,0.641,2.802,0.962,3.372,0.962
		c0.568,0,1.056-0.268,1.461-0.803c0.404-0.535,0.651-1.582,0.742-3.141H263.919z"/>
	<path fill="#231815" d="M283.064,376.221v-1.7h26.113v1.7h-2.201c-2.487,0-4.301,0.747-5.439,2.245
		c-0.718,0.981-1.079,3.333-1.079,7.064v30.402c0,4.681-0.502,8.473-1.505,11.379c-1.004,2.901-2.734,5.432-5.19,7.59
		c-2.458,2.155-5.424,3.233-8.899,3.233c-2.819,0-5.034-0.711-6.651-2.136c-1.619-1.422-2.429-3.049-2.429-4.886
		c0-1.498,0.375-2.625,1.123-3.392c0.989-0.945,2.145-1.42,3.462-1.42c0.958,0,1.82,0.318,2.584,0.963
		c0.763,0.645,1.731,2.351,2.9,5.138c0.687,1.649,1.571,2.473,2.651,2.473c0.808,0,1.565-0.502,2.268-1.512
		c0.705-1.009,1.058-2.799,1.058-5.367V385.53c0-3.147-0.195-5.229-0.585-6.238c-0.3-0.762-0.928-1.424-1.887-1.973
		c-1.29-0.731-2.651-1.099-4.091-1.099H283.064z"/>
	<path fill="#231815" d="M338.12,435.014v1.697h-26.112v-1.697h2.157c2.518,0,4.344-0.748,5.484-2.246
		c0.719-0.976,1.078-3.335,1.078-7.062V385.53c0-3.147-0.195-5.229-0.583-6.238c-0.3-0.762-0.914-1.424-1.842-1.973
		c-1.321-0.731-2.697-1.099-4.137-1.099h-2.157v-1.7h26.112v1.7h-2.201c-2.487,0-4.301,0.747-5.439,2.245
		c-0.748,0.981-1.123,3.333-1.123,7.064v40.176c0,3.147,0.195,5.225,0.585,6.235c0.298,0.765,0.928,1.422,1.886,1.971
		c1.288,0.735,2.651,1.102,4.091,1.102H338.12z"/>
	<path fill="#231815" d="M407.313,376.221v-1.7h21.57v1.7h-2.291c-2.399,0-4.24,1.025-5.527,3.071
		c-0.63,0.949-0.945,3.15-0.945,6.606v25.224c0,6.235-0.606,11.074-1.82,14.517c-1.212,3.436-3.594,6.39-7.146,8.85
		c-3.55,2.461-8.382,3.689-14.495,3.689c-6.651,0-11.701-1.175-15.146-3.53c-3.445-2.354-5.889-5.52-7.327-9.494
		c-0.96-2.721-1.444-7.824-1.444-15.318V385.53c0-3.822-0.515-6.331-1.552-7.52c-1.035-1.192-2.708-1.79-5.02-1.79h-2.293v-1.7
		h26.354v1.7h-2.333c-2.518,0-4.318,0.807-5.395,2.431c-0.748,1.102-1.125,3.392-1.125,6.879v27.104
		c0,2.416,0.217,5.185,0.653,8.301c0.435,3.117,1.219,5.55,2.359,7.292c1.138,1.742,2.777,3.179,4.918,4.311
		c2.142,1.132,4.771,1.697,7.89,1.697c3.985,0,7.552-0.885,10.696-2.66c3.148-1.771,5.297-4.042,6.452-6.81
		c1.152-2.766,1.728-7.455,1.728-14.056V385.53c0-3.884-0.421-6.313-1.257-7.292c-1.169-1.346-2.908-2.018-5.215-2.018H407.313z"/>
	<path fill="#231815" d="M428.66,374.521h16.54l37.258,46.645v-35.862c0-3.822-0.42-6.207-1.258-7.157
		c-1.11-1.284-2.861-1.925-5.258-1.925h-2.114v-1.7h21.212v1.7h-2.155c-2.574,0-4.404,0.795-5.482,2.383
		c-0.657,0.98-0.989,3.209-0.989,6.699v52.419h-1.617l-40.181-50.081v38.296c0,3.821,0.404,6.204,1.213,7.149
		c1.139,1.287,2.891,1.928,5.258,1.928h2.155v1.697h-21.211v-1.697h2.111c2.607,0,4.45-0.796,5.53-2.382
		c0.658-0.982,0.986-3.213,0.986-6.695v-43.25c-1.765-2.107-3.107-3.499-4.021-4.174c-0.916-0.671-2.253-1.298-4.023-1.882
		c-0.866-0.273-2.184-0.41-3.954-0.41V374.521z"/>
	<path fill="#231815" d="M524.75,435.014v1.697h-26.11v-1.697h2.153c2.522,0,4.344-0.748,5.482-2.246
		c0.727-0.976,1.084-3.335,1.084-7.062V385.53c0-3.147-0.196-5.229-0.588-6.238c-0.3-0.762-0.915-1.424-1.844-1.973
		c-1.314-0.731-2.69-1.099-4.135-1.099h-2.153v-1.7h26.11v1.7h-2.202c-2.487,0-4.297,0.747-5.436,2.245
		c-0.752,0.981-1.126,3.333-1.126,7.064v40.176c0,3.147,0.197,5.225,0.584,6.235c0.298,0.765,0.928,1.422,1.892,1.971
		c1.287,0.735,2.647,1.102,4.086,1.102H524.75z"/>
	<path fill="#231815" d="M592.348,374.521v1.7c-2.155,0.398-3.794,1.099-4.898,2.108c-1.587,1.497-2.996,3.792-4.224,6.878
		l-21.258,52.928h-1.667l-22.831-53.611c-1.166-2.755-1.992-4.436-2.474-5.049c-0.745-0.944-1.667-1.687-2.765-2.223
		c-1.091-0.534-2.568-0.882-4.426-1.031v-1.7h24.897v1.7c-2.813,0.272-4.642,0.764-5.482,1.465c-0.84,0.705-1.253,1.606-1.253,2.708
		c0,1.528,0.685,3.912,2.067,7.152l15.504,36.463l14.381-36.003c1.409-3.543,2.114-6.008,2.114-7.382
		c0-0.889-0.441-1.736-1.308-2.546c-0.868-0.813-2.338-1.382-4.405-1.721c-0.149-0.03-0.399-0.075-0.759-0.137v-1.7H592.348z"/>
	<path fill="#231815" d="M612.706,377.915v24.583h13.396c3.476,0,5.794-0.534,6.966-1.605c1.554-1.407,2.428-3.88,2.603-7.43h1.668
		v21.646h-1.668c-0.42-3.024-0.84-4.966-1.254-5.823c-0.542-1.07-1.422-1.911-2.655-2.522c-1.228-0.609-3.117-0.917-5.659-0.917
		h-13.396v20.5c0,2.751,0.121,4.426,0.357,5.021c0.244,0.596,0.665,1.07,1.262,1.423c0.596,0.349,1.734,0.524,3.414,0.524h10.336
		c3.449,0,5.949-0.244,7.508-0.73c1.56-0.489,3.058-1.45,4.493-2.892c1.857-1.894,3.761-4.754,5.713-8.576h1.796l-5.258,15.594
		h-46.971v-1.697h2.162c1.436,0,2.799-0.349,4.086-1.054c0.963-0.487,1.612-1.224,1.958-2.203c0.34-0.976,0.517-2.981,0.517-6.007
		v-40.402c0-3.945-0.394-6.374-1.174-7.292c-1.077-1.225-2.873-1.835-5.387-1.835h-2.162v-1.7h46.971l0.67,13.621h-1.748
		c-0.63-3.269-1.328-5.517-2.094-6.739c-0.76-1.223-1.892-2.158-3.389-2.799c-1.2-0.458-3.313-0.688-6.343-0.688H612.706z"/>
	<path fill="#231815" d="M711.902,436.711h-16.271l-20.629-29.076c-1.531,0.062-2.771,0.093-3.732,0.093
		c-0.387,0-0.807-0.007-1.261-0.023c-0.447-0.019-0.908-0.038-1.389-0.069v18.071c0,3.909,0.419,6.343,1.259,7.292
		c1.139,1.346,2.847,2.016,5.123,2.016h2.38v1.697h-26.111v-1.697h2.291c2.575,0,4.417-0.857,5.529-2.565
		c0.63-0.948,0.942-3.198,0.942-6.742V385.53c0-3.914-0.42-6.343-1.26-7.292c-1.166-1.346-2.902-2.018-5.212-2.018h-2.291v-1.7h22.2
		c6.472,0,11.243,0.485,14.313,1.447c3.075,0.962,5.68,2.734,7.82,5.319c2.147,2.586,3.219,5.662,3.219,9.24
		c0,3.821-1.226,7.143-3.665,9.955c-2.441,2.813-6.222,4.798-11.346,5.961l12.585,17.839c2.873,4.102,5.348,6.818,7.413,8.166
		c2.068,1.343,4.764,2.199,8.091,2.565V436.711z M668.621,404.745c0.568,0,1.063,0.007,1.483,0.023
		c0.42,0.017,0.759,0.024,1.029,0.024c5.815,0,10.2-1.287,13.147-3.853c2.954-2.568,4.426-5.839,4.426-9.815
		c0-3.884-1.186-7.042-3.571-9.468c-2.38-2.433-5.538-3.646-9.461-3.646c-1.734,0-4.086,0.289-7.054,0.868V404.745z"/>
	<path fill="#231815" d="M753.297,373.102v21.509h-1.669c-0.534-4.126-1.504-7.413-2.893-9.86c-1.396-2.445-3.382-4.388-5.957-5.824
		c-2.576-1.438-5.245-2.154-8.003-2.154c-3.118,0-5.692,0.969-7.727,2.914c-2.038,1.938-3.056,4.147-3.056,6.623
		c0,1.895,0.644,3.622,1.932,5.182c1.856,2.297,6.274,5.354,13.255,9.176c5.692,3.116,9.582,5.51,11.664,7.177
		c2.086,1.666,3.687,3.633,4.811,5.893c1.125,2.263,1.687,4.631,1.687,7.108c0,4.705-1.795,8.766-5.373,12.174
		c-3.577,3.409-8.186,5.117-13.817,5.117c-1.77,0-3.437-0.14-4.987-0.413c-0.93-0.157-2.86-0.713-5.781-1.675
		c-2.922-0.961-4.771-1.443-5.55-1.443c-0.746,0-1.343,0.227-1.775,0.685c-0.435,0.461-0.753,1.41-0.964,2.847h-1.666v-21.328h1.666
		c0.781,4.468,1.824,7.804,3.145,10.021c1.321,2.22,3.335,4.061,6.045,5.527c2.711,1.47,5.687,2.201,8.925,2.201
		c3.742,0,6.702-1.01,8.871-3.029c2.176-2.016,3.26-4.401,3.26-7.152c0-1.528-0.413-3.073-1.233-4.632
		c-0.826-1.559-2.107-3.009-3.842-4.357c-1.172-0.916-4.364-2.866-9.576-5.848c-5.211-2.979-8.917-5.354-11.12-7.13
		c-2.203-1.775-3.877-3.731-5.016-5.869c-1.138-2.142-1.706-4.496-1.706-7.064c0-4.463,1.68-8.308,5.033-11.533
		c3.355-3.227,7.624-4.839,12.809-4.839c3.239,0,6.668,0.81,10.295,2.429c1.673,0.767,2.858,1.148,3.55,1.148
		c0.78,0,1.417-0.236,1.911-0.711c0.495-0.475,0.888-1.427,1.186-2.866H753.297z"/>
	<path fill="#231815" d="M790.69,435.014v1.697h-26.119v-1.697h2.163c2.514,0,4.345-0.748,5.482-2.246
		c0.718-0.976,1.077-3.335,1.077-7.062V385.53c0-3.147-0.196-5.229-0.582-6.238c-0.298-0.762-0.916-1.424-1.844-1.973
		c-1.321-0.731-2.697-1.099-4.134-1.099h-2.163v-1.7h26.119v1.7h-2.203c-2.486,0-4.303,0.747-5.442,2.245
		c-0.745,0.981-1.124,3.333-1.124,7.064v40.176c0,3.147,0.196,5.225,0.59,6.235c0.298,0.765,0.928,1.422,1.883,1.971
		c1.289,0.735,2.658,1.102,4.094,1.102H790.69z"/>
	<path fill="#231815" d="M846.192,374.521l0.678,14.584h-1.709c-0.331-2.565-0.778-4.397-1.349-5.502
		c-0.928-1.77-2.167-3.077-3.706-3.917c-1.546-0.841-3.578-1.265-6.093-1.265h-8.585v47.516c0,3.821,0.405,6.204,1.212,7.149
		c1.138,1.287,2.894,1.928,5.26,1.928h2.113v1.697h-25.839v-1.697h2.155c2.574,0,4.403-0.796,5.482-2.382
		c0.655-0.982,0.989-3.213,0.989-6.695v-47.516h-7.326c-2.847,0-4.872,0.214-6.066,0.641c-1.558,0.582-2.893,1.7-4.004,3.347
		c-1.104,1.655-1.769,3.884-1.979,6.696h-1.709l0.726-14.584H846.192z"/>
	<path fill="#231815" d="M893.025,374.521h21.259v1.7h-1.172c-0.779,0-1.917,0.354-3.415,1.051c-1.498,0.705-2.86,1.715-4.086,3.029
		c-1.233,1.315-2.745,3.457-4.541,6.421l-14.699,23.621v15.594c0,3.821,0.421,6.204,1.261,7.149
		c1.139,1.287,2.935,1.928,5.394,1.928h1.979v1.697h-25.893v-1.697h2.161c2.574,0,4.405-0.796,5.482-2.382
		c0.657-0.982,0.989-3.213,0.989-6.695v-14.726l-16.718-26.051c-1.979-3.056-3.321-4.967-4.026-5.73
		c-0.705-0.762-2.161-1.684-4.384-2.751c-0.596-0.309-1.464-0.458-2.603-0.458v-1.7h26.063v1.7h-1.349
		c-1.402,0-2.703,0.337-3.883,1.008c-1.187,0.675-1.776,1.684-1.776,3.025c0,1.104,0.916,3.09,2.739,5.965l12.719,20.041
		l11.954-19.172c1.804-2.873,2.698-5.011,2.698-6.421c0-0.853-0.217-1.619-0.65-2.291c-0.435-0.674-1.059-1.198-1.864-1.585
		c-0.807-0.379-2.026-0.57-3.64-0.57V374.521z"/>
</g>
</svg>
